<mxfile host="app.diagrams.net" agent="Mozilla/5.0 (Windows NT 10.0; Win64; x64) AppleWebKit/537.36 (KHTML, like Gecko) Chrome/136.0.0.0 Safari/537.36" version="27.0.6">
  <diagram name="Sivu-1" id="H2KB_m5Gr2wm3D5CxMwi">
    <mxGraphModel dx="997" dy="1868" grid="1" gridSize="10" guides="1" tooltips="1" connect="1" arrows="1" fold="1" page="1" pageScale="1" pageWidth="850" pageHeight="1100" math="0" shadow="0">
      <root>
        <mxCell id="0" />
        <mxCell id="1" parent="0" />
        <mxCell id="eUASritPrKgCx3orEED_-1" value="Send email" style="rounded=0;whiteSpace=wrap;html=1;" parent="1" vertex="1">
          <mxGeometry x="190" y="65" width="100" height="50" as="geometry" />
        </mxCell>
        <mxCell id="eUASritPrKgCx3orEED_-4" value="" style="endArrow=classic;html=1;rounded=0;fontSize=12;startSize=8;endSize=8;curved=1;" parent="1" edge="1">
          <mxGeometry width="50" height="50" relative="1" as="geometry">
            <mxPoint x="400" as="sourcePoint" />
            <mxPoint x="400" y="50" as="targetPoint" />
          </mxGeometry>
        </mxCell>
        <mxCell id="eUASritPrKgCx3orEED_-7" value="" style="ellipse;shape=cloud;whiteSpace=wrap;html=1;" parent="1" vertex="1">
          <mxGeometry x="270" y="-100" width="165" height="110" as="geometry" />
        </mxCell>
        <mxCell id="eUASritPrKgCx3orEED_-6" value="&lt;span class=&quot;_fadeIn_m1hgl_8&quot;&gt;Get &lt;/span&gt;&lt;span class=&quot;_fadeIn_m1hgl_8&quot;&gt;the &lt;/span&gt;&lt;span class=&quot;_fadeIn_m1hgl_8&quot;&gt;command &lt;/span&gt;&lt;span class=&quot;_fadeIn_m1hgl_8&quot;&gt;to &lt;/span&gt;&lt;span class=&quot;_fadeIn_m1hgl_8&quot;&gt;send &lt;/span&gt;&lt;span class=&quot;_fadeIn_m1hgl_8&quot;&gt;an &lt;/span&gt;&lt;span class=&quot;_fadeIn_m1hgl_8&quot;&gt;email &lt;/span&gt;&lt;span class=&quot;_fadeIn_m1hgl_8&quot;&gt;and &lt;/span&gt;&lt;span class=&quot;_fadeIn_m1hgl_8&quot;&gt;ask &lt;/span&gt;&lt;span class=&quot;_fadeIn_m1hgl_8&quot;&gt;questions &lt;/span&gt;&lt;span class=&quot;_fadeIn_m1hgl_8&quot;&gt;to &lt;/span&gt;&lt;span class=&quot;_fadeIn_m1hgl_8&quot;&gt;a &lt;/span&gt;&lt;span class=&quot;_fadeIn_m1hgl_8&quot;&gt;specific &lt;/span&gt;&lt;span class=&quot;_fadeIn_m1hgl_8&quot;&gt;person&lt;/span&gt;" style="text;html=1;align=left;verticalAlign=middle;whiteSpace=wrap;rounded=0;" parent="1" vertex="1">
          <mxGeometry x="310" y="-75" width="110" height="60" as="geometry" />
        </mxCell>
        <mxCell id="eUASritPrKgCx3orEED_-8" value="" style="endArrow=classic;html=1;rounded=0;fontSize=12;startSize=8;endSize=8;curved=1;" parent="1" target="eUASritPrKgCx3orEED_-9" edge="1">
          <mxGeometry width="50" height="50" relative="1" as="geometry">
            <mxPoint x="180" y="80" as="sourcePoint" />
            <mxPoint x="110" y="60" as="targetPoint" />
          </mxGeometry>
        </mxCell>
        <mxCell id="eUASritPrKgCx3orEED_-9" value="" style="shape=actor;whiteSpace=wrap;html=1;" parent="1" vertex="1">
          <mxGeometry x="80" y="20" width="26.67" height="40" as="geometry" />
        </mxCell>
        <mxCell id="eUASritPrKgCx3orEED_-18" style="edgeStyle=none;curved=1;rounded=0;orthogonalLoop=1;jettySize=auto;html=1;exitX=0;exitY=1;exitDx=0;exitDy=0;entryX=1;entryY=0;entryDx=0;entryDy=0;fontSize=12;startSize=8;endSize=8;" parent="1" source="eUASritPrKgCx3orEED_-10" target="eUASritPrKgCx3orEED_-12" edge="1">
          <mxGeometry relative="1" as="geometry" />
        </mxCell>
        <mxCell id="eUASritPrKgCx3orEED_-19" style="edgeStyle=none;curved=1;rounded=0;orthogonalLoop=1;jettySize=auto;html=1;exitX=0;exitY=0.5;exitDx=0;exitDy=0;entryX=1;entryY=0.5;entryDx=0;entryDy=0;fontSize=12;startSize=8;endSize=8;" parent="1" source="eUASritPrKgCx3orEED_-10" target="eUASritPrKgCx3orEED_-1" edge="1">
          <mxGeometry relative="1" as="geometry" />
        </mxCell>
        <mxCell id="eUASritPrKgCx3orEED_-10" value="Email service" style="rounded=0;whiteSpace=wrap;html=1;" parent="1" vertex="1">
          <mxGeometry x="350" y="60" width="120" height="60" as="geometry" />
        </mxCell>
        <mxCell id="eUASritPrKgCx3orEED_-25" style="edgeStyle=none;curved=1;rounded=0;orthogonalLoop=1;jettySize=auto;html=1;exitX=0.5;exitY=1;exitDx=0;exitDy=0;entryX=0.5;entryY=0;entryDx=0;entryDy=0;fontSize=12;startSize=8;endSize=8;" parent="1" source="eUASritPrKgCx3orEED_-12" target="eUASritPrKgCx3orEED_-24" edge="1">
          <mxGeometry relative="1" as="geometry" />
        </mxCell>
        <mxCell id="eUASritPrKgCx3orEED_-12" value="Check email box" style="rounded=0;whiteSpace=wrap;html=1;" parent="1" vertex="1">
          <mxGeometry x="190" y="150" width="100" height="50" as="geometry" />
        </mxCell>
        <mxCell id="eUASritPrKgCx3orEED_-13" value="" style="shape=image;html=1;verticalAlign=top;verticalLabelPosition=bottom;labelBackgroundColor=#ffffff;imageAspect=0;aspect=fixed;image=https://cdn2.iconfinder.com/data/icons/boxicons-regular-vol-3/24/bx-refresh-128.png" parent="1" vertex="1">
          <mxGeometry x="268" y="125" width="30" height="30" as="geometry" />
        </mxCell>
        <mxCell id="eUASritPrKgCx3orEED_-14" value="" style="endArrow=classic;html=1;rounded=0;fontSize=12;startSize=8;endSize=8;curved=1;" parent="1" edge="1">
          <mxGeometry width="50" height="50" relative="1" as="geometry">
            <mxPoint x="106.67" y="65" as="sourcePoint" />
            <mxPoint x="180" y="170" as="targetPoint" />
          </mxGeometry>
        </mxCell>
        <mxCell id="eUASritPrKgCx3orEED_-16" style="edgeStyle=none;curved=1;rounded=0;orthogonalLoop=1;jettySize=auto;html=1;exitX=0.25;exitY=1;exitDx=0;exitDy=0;fontSize=12;startSize=8;endSize=8;" parent="1" source="eUASritPrKgCx3orEED_-1" target="eUASritPrKgCx3orEED_-1" edge="1">
          <mxGeometry relative="1" as="geometry" />
        </mxCell>
        <mxCell id="eUASritPrKgCx3orEED_-20" value="DB" style="shape=cylinder3;whiteSpace=wrap;html=1;boundedLbl=1;backgroundOutline=1;size=15;" parent="1" vertex="1">
          <mxGeometry x="440" y="190" width="37.5" height="50" as="geometry" />
        </mxCell>
        <mxCell id="eUASritPrKgCx3orEED_-22" style="edgeStyle=none;curved=1;rounded=0;orthogonalLoop=1;jettySize=auto;html=1;exitX=1;exitY=1;exitDx=0;exitDy=0;entryX=0.145;entryY=0;entryDx=0;entryDy=4.35;entryPerimeter=0;fontSize=12;startSize=8;endSize=8;" parent="1" source="eUASritPrKgCx3orEED_-1" target="eUASritPrKgCx3orEED_-20" edge="1">
          <mxGeometry relative="1" as="geometry" />
        </mxCell>
        <mxCell id="eUASritPrKgCx3orEED_-23" value="Store email id +&lt;div&gt;&amp;nbsp;information&lt;/div&gt;" style="edgeLabel;html=1;align=center;verticalAlign=middle;resizable=0;points=[];fontSize=12;" parent="eUASritPrKgCx3orEED_-22" vertex="1" connectable="0">
          <mxGeometry x="0.3303" relative="1" as="geometry">
            <mxPoint as="offset" />
          </mxGeometry>
        </mxCell>
        <mxCell id="eUASritPrKgCx3orEED_-27" style="edgeStyle=none;curved=1;rounded=0;orthogonalLoop=1;jettySize=auto;html=1;exitX=0.5;exitY=1;exitDx=0;exitDy=0;entryX=0.5;entryY=0;entryDx=0;entryDy=0;fontSize=12;startSize=8;endSize=8;" parent="1" source="eUASritPrKgCx3orEED_-24" target="eUASritPrKgCx3orEED_-26" edge="1">
          <mxGeometry relative="1" as="geometry" />
        </mxCell>
        <mxCell id="eUASritPrKgCx3orEED_-24" value="New email detected" style="rounded=0;whiteSpace=wrap;html=1;" parent="1" vertex="1">
          <mxGeometry x="190" y="230" width="100" height="50" as="geometry" />
        </mxCell>
        <mxCell id="eUASritPrKgCx3orEED_-29" style="edgeStyle=none;curved=1;rounded=0;orthogonalLoop=1;jettySize=auto;html=1;exitX=1;exitY=0.5;exitDx=0;exitDy=0;entryX=1;entryY=1;entryDx=0;entryDy=0;fontSize=12;startSize=8;endSize=8;" parent="1" source="eUASritPrKgCx3orEED_-26" target="eUASritPrKgCx3orEED_-10" edge="1">
          <mxGeometry relative="1" as="geometry">
            <Array as="points">
              <mxPoint x="570" y="270" />
            </Array>
          </mxGeometry>
        </mxCell>
        <mxCell id="eUASritPrKgCx3orEED_-30" value="Notify for new reply" style="edgeLabel;html=1;align=center;verticalAlign=middle;resizable=0;points=[];fontSize=12;" parent="eUASritPrKgCx3orEED_-29" vertex="1" connectable="0">
          <mxGeometry x="-0.245" y="27" relative="1" as="geometry">
            <mxPoint as="offset" />
          </mxGeometry>
        </mxCell>
        <mxCell id="eUASritPrKgCx3orEED_-26" value="&lt;span style=&quot;line-height: 100%;&quot;&gt;&lt;font style=&quot;font-size: 8px;&quot;&gt;Check if it is a reply; if not, ignore it. If it is a reply, check the message it is replying to and store it in the database&lt;/font&gt;&lt;/span&gt;" style="rounded=0;whiteSpace=wrap;html=1;align=center;" parent="1" vertex="1">
          <mxGeometry x="190" y="310" width="100" height="80" as="geometry" />
        </mxCell>
        <mxCell id="eUASritPrKgCx3orEED_-28" style="edgeStyle=none;curved=1;rounded=0;orthogonalLoop=1;jettySize=auto;html=1;exitX=1;exitY=0.5;exitDx=0;exitDy=0;entryX=0.145;entryY=1;entryDx=0;entryDy=-4.35;entryPerimeter=0;fontSize=12;startSize=8;endSize=8;" parent="1" source="eUASritPrKgCx3orEED_-26" target="eUASritPrKgCx3orEED_-20" edge="1">
          <mxGeometry relative="1" as="geometry" />
        </mxCell>
        <mxCell id="eUASritPrKgCx3orEED_-31" value="Send new information&lt;div&gt;for news generator&lt;/div&gt;&lt;div&gt;agents...&lt;/div&gt;" style="ellipse;shape=cloud;whiteSpace=wrap;html=1;" parent="1" vertex="1">
          <mxGeometry x="410" y="-170" width="165" height="110" as="geometry" />
        </mxCell>
        <mxCell id="eUASritPrKgCx3orEED_-32" style="edgeStyle=none;curved=1;rounded=0;orthogonalLoop=1;jettySize=auto;html=1;exitX=0.75;exitY=0;exitDx=0;exitDy=0;entryX=0.55;entryY=0.95;entryDx=0;entryDy=0;entryPerimeter=0;fontSize=12;startSize=8;endSize=8;" parent="1" source="eUASritPrKgCx3orEED_-10" target="eUASritPrKgCx3orEED_-31" edge="1">
          <mxGeometry relative="1" as="geometry" />
        </mxCell>
      </root>
    </mxGraphModel>
  </diagram>
</mxfile>
